<svg width="59" height="20" viewBox="0 0 59 20" fill="none" xmlns="http://www.w3.org/2000/svg">
<path d="M0.475586 0H5.78775C6.57788 0 7.2904 0.141093 7.92532 0.423281C8.57435 0.691358 9.12462 1.06526 9.57611 1.54497C10.0417 2.02469 10.3945 2.58201 10.6343 3.21693C10.8883 3.83774 11.0153 4.49383 11.0153 5.18519C11.0153 5.72134 10.9447 6.23633 10.8036 6.73016C10.6625 7.20988 10.4509 7.66138 10.1687 8.08466C9.90063 8.49383 9.56906 8.86772 9.174 9.20635C8.79305 9.53086 8.36271 9.79189 7.88299 9.98942L10.8248 14.8148H8.05231L5.34331 10.3704H2.90945V14.8148H0.475586V0ZM5.78775 8.19048C6.21104 8.19048 6.59199 8.11288 6.93061 7.95767C7.28335 7.78836 7.57964 7.56966 7.8195 7.30159C8.05936 7.0194 8.24278 6.70194 8.36977 6.34921C8.51086 5.98236 8.58141 5.59436 8.58141 5.18519C8.58141 4.77601 8.51086 4.39506 8.36977 4.04233C8.24278 3.67549 8.05936 3.35803 7.8195 3.08995C7.57964 2.80776 7.28335 2.58907 6.93061 2.43386C6.59199 2.26455 6.21104 2.17989 5.78775 2.17989H2.90945V8.19048H5.78775Z" fill="#232425"/>
<path d="M16.9409 6.43386C16.2213 6.43386 15.6216 6.63845 15.1419 7.04762C14.6622 7.45679 14.4223 8.06349 14.4223 8.86772H19.3324C19.3324 8.10582 19.1066 7.51323 18.6551 7.08995C18.2178 6.65256 17.6463 6.43386 16.9409 6.43386ZM14.4223 10.582C14.4506 10.9347 14.5141 11.2663 14.6128 11.5767C14.7116 11.8871 14.8597 12.1623 15.0573 12.4021C15.2689 12.6279 15.537 12.8113 15.8615 12.9524C16.186 13.0794 16.5881 13.1429 17.0678 13.1429C17.731 13.1429 18.2107 13.0159 18.507 12.7619C18.8033 12.5079 19.022 12.2046 19.1631 11.8519H21.4911C21.4206 12.2751 21.2654 12.6843 21.0255 13.0794C20.7998 13.4603 20.4964 13.7989 20.1155 14.0952C19.7345 14.3915 19.2901 14.6314 18.7821 14.8148C18.2742 14.9841 17.7028 15.0688 17.0678 15.0688C16.2354 15.0688 15.5088 14.9347 14.888 14.6667C14.2812 14.3986 13.7733 14.0317 13.3641 13.5661C12.955 13.1005 12.6446 12.5503 12.4329 11.9153C12.2354 11.2804 12.1366 10.6032 12.1366 9.8836C12.1366 9.14991 12.2425 8.46561 12.4541 7.83069C12.6798 7.19577 12.9973 6.6455 13.4065 6.17989C13.8156 5.71429 14.3236 5.3545 14.9303 5.10053C15.537 4.83245 16.2283 4.69841 17.0044 4.69841C17.6393 4.69841 18.2319 4.81129 18.7821 5.03704C19.3465 5.26279 19.8333 5.58025 20.2424 5.98942C20.6657 6.38448 20.9902 6.85009 21.216 7.38624C21.4559 7.9224 21.5758 8.50794 21.5758 9.14286C21.5758 9.31217 21.5687 9.51675 21.5546 9.75661C21.5546 9.98236 21.5264 10.2575 21.47 10.582H14.4223Z" fill="#232425"/>
<path d="M33.7504 4.95238V14.8148H31.4435V13.4815C31.1331 13.9753 30.6887 14.3633 30.1102 14.6455C29.5458 14.9277 28.9744 15.0688 28.3959 15.0688C27.6481 15.0688 26.9638 14.9347 26.343 14.6667C25.7222 14.3845 25.186 14.0035 24.7345 13.5238C24.2971 13.0441 23.9514 12.4938 23.6975 11.873C23.4576 11.2522 23.3377 10.5891 23.3377 9.8836C23.3377 9.19224 23.4576 8.53615 23.6975 7.91534C23.9514 7.28042 24.2971 6.7231 24.7345 6.24339C25.186 5.76367 25.7222 5.38977 26.343 5.12169C26.9638 4.83951 27.6481 4.69841 28.3959 4.69841C28.9744 4.69841 29.5458 4.83951 30.1102 5.12169C30.6887 5.40388 31.1331 5.79189 31.4435 6.28571V4.95238H33.7504ZM28.5229 13.0159C28.9603 13.0159 29.3553 12.9312 29.7081 12.7619C30.0749 12.5926 30.3853 12.3668 30.6393 12.0847C30.8932 11.8025 31.0908 11.4709 31.2319 11.0899C31.373 10.709 31.4435 10.3069 31.4435 9.8836C31.4435 9.46032 31.373 9.0582 31.2319 8.67725C31.0908 8.2963 30.8932 7.96473 30.6393 7.68254C30.3853 7.40035 30.0749 7.1746 29.7081 7.00529C29.3553 6.83598 28.9603 6.75132 28.5229 6.75132C28.0855 6.75132 27.6904 6.83598 27.3377 7.00529C26.985 7.1746 26.6816 7.40035 26.4276 7.68254C26.1737 7.96473 25.9761 8.2963 25.835 8.67725C25.7081 9.0582 25.6446 9.46032 25.6446 9.8836C25.6446 10.3069 25.7081 10.709 25.835 11.0899C25.9761 11.4709 26.1737 11.8025 26.4276 12.0847C26.6816 12.3668 26.985 12.5926 27.3377 12.7619C27.6904 12.9312 28.0855 13.0159 28.5229 13.0159Z" fill="#232425"/>
<path d="M44.1957 13.4815C43.8853 13.9753 43.4408 14.3633 42.8623 14.6455C42.2979 14.9277 41.7265 15.0688 41.148 15.0688C40.4002 15.0688 39.7159 14.9347 39.0951 14.6667C38.4743 14.3845 37.9382 14.0035 37.4867 13.5238C37.0493 13.0441 36.7036 12.4938 36.4496 11.873C36.2098 11.2522 36.0898 10.5891 36.0898 9.8836C36.0898 9.19224 36.2098 8.53615 36.4496 7.91534C36.7036 7.28042 37.0493 6.7231 37.4867 6.24339C37.9382 5.76367 38.4743 5.38977 39.0951 5.12169C39.7159 4.83951 40.4002 4.69841 41.148 4.69841C41.7265 4.69841 42.2979 4.83951 42.8623 5.12169C43.4408 5.40388 43.8853 5.79189 44.1957 6.28571V0H46.5025V14.8148H44.1957V13.4815ZM41.275 13.0159C41.7124 13.0159 42.1075 12.9312 42.4602 12.7619C42.827 12.5926 43.1375 12.3668 43.3914 12.0847C43.6454 11.8025 43.8429 11.4709 43.984 11.0899C44.1251 10.709 44.1957 10.3069 44.1957 9.8836C44.1957 9.46032 44.1251 9.0582 43.984 8.67725C43.8429 8.2963 43.6454 7.96473 43.3914 7.68254C43.1375 7.40035 42.827 7.1746 42.4602 7.00529C42.1075 6.83598 41.7124 6.75132 41.275 6.75132C40.8376 6.75132 40.4426 6.83598 40.0898 7.00529C39.7371 7.1746 39.4338 7.40035 39.1798 7.68254C38.9258 7.96473 38.7283 8.2963 38.5872 8.67725C38.4602 9.0582 38.3967 9.46032 38.3967 9.8836C38.3967 10.3069 38.4602 10.709 38.5872 11.0899C38.7283 11.4709 38.9258 11.8025 39.1798 12.0847C39.4338 12.3668 39.7371 12.5926 40.0898 12.7619C40.4426 12.9312 40.8376 13.0159 41.275 13.0159Z" fill="#232425"/>
<path d="M54.0272 20C53.364 20 52.7503 19.9153 52.1859 19.746C51.6356 19.5767 51.1559 19.3228 50.7467 18.9841C50.3376 18.6455 50.0131 18.2222 49.7732 17.7143C49.5475 17.2063 49.4275 16.6138 49.4134 15.9365H51.7415C51.7979 16.6561 52.0448 17.1852 52.4822 17.5238C52.9337 17.8765 53.4628 18.0529 54.0695 18.0529C54.4222 18.0529 54.7467 18.0176 55.043 17.9471C55.3393 17.8765 55.5933 17.7496 55.8049 17.5661C56.0166 17.3827 56.1788 17.1429 56.2917 16.8466C56.4187 16.5503 56.4822 16.1693 56.4822 15.7037V13.4392C56.1718 13.9753 55.7415 14.3845 55.1912 14.6667C54.6409 14.9347 53.9989 15.0688 53.2653 15.0688C52.5457 15.0688 51.939 14.9489 51.4452 14.709C50.9654 14.4691 50.5845 14.1446 50.3023 13.7354C50.0624 13.3686 49.8931 12.9594 49.7944 12.5079C49.7097 12.0564 49.6674 11.4921 49.6674 10.8148V4.95238H51.9743V10.0529C51.9743 10.4762 52.0095 10.8713 52.0801 11.2381C52.1506 11.6049 52.2635 11.9224 52.4187 12.1905C52.588 12.4444 52.8067 12.649 53.0748 12.8042C53.357 12.9594 53.7027 13.037 54.1118 13.037C54.9161 13.037 55.5087 12.7549 55.8896 12.1905C56.2847 11.612 56.4822 10.8995 56.4822 10.0529V4.95238H58.7891V15.7037C58.7891 17.1287 58.3799 18.2081 57.5616 18.9418C56.7573 19.6473 55.5792 20 54.0272 20Z" fill="#232425"/>
</svg>
